# xmcd
#
# Track frame offsets: 
#        150
#        21546
#        43345
#        66439
#        89616
#        109502
#        130856
#        153803
#        177034
#        194823
#
# Disc length: 2871 seconds
#
# Revision: 0
# Processed by: cddbd v1.5.2PL0 Copyright (c) Steve Scherf et al.
# Submitted via: ExactAudioCopy v1.0b3
#
DISCID=8e0b350a
DTITLE=Che Linh - Dem Tren Vung Dat La
DYEAR=1994
DGENRE=
TTITLE0=Huong tham
TTITLE1=Nhung dom mat hoa chau
TTITLE2=Phuong hong
TTITLE3=Nhu da dau yeu
TTITLE4=Dem tren vung dat la
TTITLE5=Nho nguoi tinh xua
TTITLE6=Yeu thuong cuoi cung
TTITLE7=Muoi nam yeu em
TTITLE8=Nhung con duong tinh su
TTITLE9=Kiep dam me
EXTD=
EXTT0=
EXTT1=
EXTT2=
EXTT3=
EXTT4=
EXTT5=
EXTT6=
EXTT7=
EXTT8=
EXTT9=
PLAYORDER=
